<svg id="Capa_1" enable-background="new 0 0 511.999 511.999" height="512" viewBox="0 0 511.999 511.999" width="512" xmlns="http://www.w3.org/2000/svg"><g><g><g><path d="m467.963 17.596h-65.822c-13.239.473-13.238 19.532 0 19.999h65.822c13.254 0 24.038 10.783 24.038 24.038v104.446c0 13.254-10.783 24.038-24.038 24.038h-73.165c-5.523 0-9.999 4.478-9.999 9.999 0 21.352-15.335 31.614-26.573 36.268v-36.268c0-5.522-4.477-9.999-9.999-9.999h-69.163c-10.437-20.355-31.408-34.103-54.241-35.517v-92.968c0-13.254 10.783-24.038 24.038-24.038h65.136c5.523 0 9.999-4.478 9.999-9.999s-4.477-9.999-9.999-9.999h-65.136c-24.282 0-44.037 19.755-44.037 44.037v94.838c-48.456 11.647-66.153 74.497-30.275 109.551-16.16 2.87-32.662 12.829-43.712 24.861l-34.524 37.588c-2.008 1.416-4.687 1.384-6.674-.127l-25.91-19.722c-42.733-29.814-87.87 28.423-48.783 62.568l39.331 31.408c21.668 17.302 53.061 18.041 75.542 1.82v80.05c.481 13.229 19.504 13.265 19.999 0v-100.939c0-8.229-9.9-12.969-16.309-7.758l-13.478 10.96c-15.38 12.507-37.786 12.608-53.275.237l-39.331-31.408c-19.384-16.94 3.007-45.809 24.191-31.027l25.91 19.723c9.314 7.088 24.638 7.409 32.97-1.667l35.068-38.18c8.642-9.408 23.742-19.143 37.019-19.143h75.99c12.308 0 23.851 5.215 32.181 14.214l39.781 42.991c8.492 8.685 23.595 9.074 33.041 1.72l25.827-19.658c8.146-6.201 19.846-5.057 26.637 2.604 7.375 8.322 6.238 21.491-2.446 28.423l-39.331 31.408c-15.491 12.371-37.896 12.269-53.275-.235l-13.342-10.851c-6.405-5.211-16.309-.472-16.309 7.758v100.827c.481 13.229 19.504 13.265 19.999 0v-79.951c22.474 16.125 53.786 15.346 75.407-1.919l39.331-31.408c17.432-13.536 19.991-41.038 4.932-57.317-13.693-15.447-37.288-17.755-53.715-5.252l-25.827 19.658c-1.985 1.511-4.755 1.521-6.749.071l-39.284-42.453c-10.062-10.872-23.449-18.023-38.161-20.032 13.962-13.762 21.512-35.321 18.227-55.75h52.73v39.64c0 6.057 5.594 10.83 11.578 9.874.555-.089 13.751-2.268 26.932-10.345 15.336-9.398 24.633-22.812 27.276-39.169h63.949c24.282 0 44.036-19.755 44.036-44.037v-104.445c.002-24.281-19.753-44.036-44.035-44.036zm-251.961 157.143c26.262-3.036 50.357 18.771 50.226 45.135-2.28 60.135-88.514 60.128-90.789-.001.001-23.398 17.797-42.714 40.563-45.134z"/><path d="m402.327 67.052c-4.694 0-8.5 3.806-8.5 8.5v71.047c.383 11.238 16.608 11.259 16.999 0v-19.294l26.34 25.412c3.332 3.215 8.802 3.12 12.018-.216 3.259-3.378 3.163-8.759-.215-12.018l-31.971-30.845 29.299-26.931c3.456-3.177 3.683-8.554.505-12.009-3.176-3.456-8.553-3.684-12.009-.506l-23.967 22.031v-16.672c0-4.693-3.806-8.499-8.499-8.499z"/><path d="m274.098 77.722v71.046c.348 11.237 16.654 11.229 16.999 0v-71.046c-.349-11.237-16.655-11.229-16.999 0z"/><path d="m315.956 71.649c-1.601 1.604-2.484 3.816-2.484 6.076v67.754c0 5.024 3.339 9.619 8.671 9.619.59-.002 14.512-.056 20.074-.153 47.537-.883 47.573-86.518-.72-85.791h-19.526c-2.257 0-4.42.897-6.015 2.495zm25.542 14.504c14.261 0 19.343 13.417 19.343 25.974 0 17.609-9.502 25.658-18.92 25.822-2.603.046-7.215.082-11.338.108-.072-19.734-.056-31.535-.096-51.903h11.011z"/><path d="m349.179 31.415c3.271 7.974 14.896 8.089 18.369.226 1.716-3.885.749-8.602-2.42-11.452-7.958-7.004-19.867 1.377-15.949 11.226z"/><path d="m10.01 290.117c1.791 0 3.605-.483 5.242-1.499.92-.556 22.772-13.469 44.44-.028 4.692 2.911 10.856 1.466 13.768-3.227 2.911-4.693 1.466-10.857-3.227-13.769-32.368-20.077-64.139-.829-65.476 0-4.693 2.911-6.161 9.089-3.25 13.782 1.895 3.057 5.16 4.741 8.503 4.741z"/><path d="m370.905 271.595c-4.693 2.911-6.161 9.089-3.25 13.782 2.868 4.623 9.109 6.117 13.745 3.241.92-.556 22.772-13.469 44.44-.028 4.694 2.911 10.856 1.466 13.768-3.227 2.911-4.693 1.466-10.857-3.227-13.769-32.368-20.075-64.14-.828-65.476.001z"/></g></g></g></svg>