<?xml version="1.0" ?><svg viewBox="0 0 24 24" xmlns="http://www.w3.org/2000/svg"><title/><path d="M23.85352,23.14648l-3.86817-3.86816C19.99048,19.18567,20,19.09424,20,19V6a2.002,2.002,0,0,0-2-2,1.977,1.977,0,0,0-1,.27814V3a1.999,1.999,0,0,0-3.11963-1.65631,1.98755,1.98755,0,0,0-3.76074,0A1.999,1.999,0,0,0,7,3V6.293L.85352.14648a.5.5,0,0,0-.707.707l23,23a.5.5,0,0,0,.707-.707ZM11,2a1,1,0,0,1,2,0V9.5a.5.5,0,0,0,1,0V3a1,1,0,0,1,2,0v8a.50049.50049,0,0,0,.94824.22412A.49836.49836,0,0,0,17,10.97168V6a1,1,0,0,1,2,0V18.293l-8.3277-8.3277A.4964.4964,0,0,0,11,9.5ZM8,3a1,1,0,0,1,2,0V9.293l-2-2Z"/><path d="M18.30176,21.25928A4.00474,4.00474,0,0,1,15,23H10.36475A5.48155,5.48155,0,0,1,6.6123,21.52051L1,16.28271v-.16455a1.11793,1.11793,0,0,1,1.61816-1L5.8291,16.72363A1.49983,1.49983,0,0,0,8,15.38184V10.32812a.5.5,0,1,0-1,0v5.05372a.50018.50018,0,0,1-.72363.44726L3.06543,14.22363A2.11814,2.11814,0,0,0,0,16.11816V16.5a.50135.50135,0,0,0,.15869.36572l5.771,5.38623A6.48127,6.48127,0,0,0,10.36475,24H15a5.00154,5.00154,0,0,0,4.126-2.17529.49976.49976,0,1,0-.82422-.56543Z"/></svg>